# xmcd
#
# Track frame offsets:
#	150
#	11975
#	23005
#	36272
#	49777
#	59760
#	71922
#	87132
#	100042
#	110965
#	120877
#	128415
#	144957
#	159067
#	170062
#	184065
#	202442
#	213280
#	225784
#	238100
#	260800
#	274560
#	294192
#	306790
#
# Disc length: 4271 seconds
#
# Revision: 0
# Processed by: cddbd v1.4PL0 Copyright (c) Steve Scherf et al.
# Submitted via: audiograbber 1.81.01
#
DISCID=5410ad18
DTITLE=J.J. Cale - Chronicle Two
DYEAR=1996
DGENRE=Blues
TTITLE0=Woman In Love
TTITLE1=Call The Doctor
TTITLE2=Louisiana Women
TTITLE3=I Got The Same Old Blues
TTITLE4=Cajun Moon
TTITLE5=Super Blue
TTITLE6=Cherry
TTITLE7=Fate Of A Fool
TTITLE8=Downtown L.A.
TTITLE9=Can't Live Here
TTITLE10=Driffters Wife
TTITLE11=Does Your Mama Like To Reggae
TTITLE12=End Of The Line
TTITLE13=Change Your Mond
TTITLE14=River Boat Song
TTITLE15=Artifical Paradise
TTITLE16=Passion
TTITLE17=Jailer
TTITLE18=Low Rider
TTITLE19=Slower Baby
TTITLE20=Like You Used To
TTITLE21=Hard Love
TTITLE22=Closer To You
TTITLE23=Rose In The Garden
EXTD=
EXTT0=
EXTT1=
EXTT2=
EXTT3=
EXTT4=
EXTT5=
EXTT6=
EXTT7=
EXTT8=
EXTT9=
EXTT10=
EXTT11=
EXTT12=
EXTT13=
EXTT14=
EXTT15=
EXTT16=
EXTT17=
EXTT18=
EXTT19=
EXTT20=
EXTT21=
EXTT22=
EXTT23=
PLAYORDER=
